<svg width="24" height="24" viewBox="0 0 24 24" fill="none" xmlns="http://www.w3.org/2000/svg">
<path d="M10.5687 18.2156L9.26041 21.6739C9.16957 21.968 9.49664 22.1634 9.66017 21.8107L10.9321 18.3915C12.4222 20.1314 14.2574 20.5026 15.7656 19.7787C17.8189 18.6855 18.6184 15.7547 18.5276 13.8585C18.5108 13.5082 18.3095 13.3066 17.7462 13.3505C16.0617 13.4819 15.3063 13.0224 14.112 11.7679C15.4072 12.3732 16.0372 12.5877 16.983 12.6862C18.4549 12.8394 18.999 12.0677 19 11.0254C18.8936 8.37757 18.5276 7.58758 17.6554 7.80154C16.5814 8.12814 15.9996 8.04226 15.0024 7.35215C15.6837 7.33471 16.0987 7.29544 16.9103 7.00045C17.3283 6.82557 17.482 6.51709 17.2919 6.08213C16.7031 4.67832 16.4171 3.85658 15.9836 2.33072C15.8746 1.94092 15.4397 1.88779 14.9842 2.21349C13.1126 3.62027 12.4585 4.13593 11.9134 4.47997C11.132 4.9489 10.1871 5.65229 9.87822 6.16029C9.35128 7.00045 10.1508 7.93831 11.659 8.46585C10.7504 8.8957 10.2515 8.64834 8.96968 7.35215C8.75164 7.1763 8.44273 7.23492 8.09747 7.35215C7.60687 7.528 6.73467 8.40723 6.4621 9.56001C6.17137 11.2599 7.57053 11.1231 9.36944 11.846C8.86066 12.4908 7.67956 12.354 6.26222 11.4748C6.08052 11.3771 5.80796 11.4243 5.68075 11.5725C5.24466 12.0805 4.66319 13.6827 5.24465 15.1285C6.2077 17.141 8.29735 18.7431 10.5687 18.2156Z" fill="#293832"/>
</svg>
