<svg width="60" height="60" viewBox="0 0 60 60" fill="none" xmlns="http://www.w3.org/2000/svg">
<path d="M52.692 14.4035L32.4842 3.0457C30.9514 2.18789 29.0482 2.18789 27.5154 3.0457L7.30762 14.4035C5.76074 15.2707 4.7998 16.8973 4.7998 18.641V41.3566C4.7998 43.1004 5.76074 44.727 7.30762 45.5941L27.5154 56.952C28.2842 57.3832 29.142 57.5988 29.9998 57.5988C30.8576 57.5988 31.7154 57.3832 32.4842 56.952L52.692 45.5941C54.2389 44.727 55.1998 43.1004 55.1998 41.3566V18.641C55.1998 16.8973 54.2389 15.2707 52.692 14.4035ZM29.9998 44.3988C22.0592 44.3988 15.5998 37.9395 15.5998 29.9988C15.5998 22.0582 22.0592 15.5988 29.9998 15.5988C34.5373 15.5988 38.7279 17.7035 41.4514 21.2895L36.192 24.3316C34.6123 22.602 32.367 21.5988 29.9998 21.5988C25.3686 21.5988 21.5998 25.3676 21.5998 29.9988C21.5998 34.6301 25.3686 38.3988 29.9998 38.3988C32.367 38.3988 34.6123 37.3957 36.192 35.666L41.4514 38.7082C38.7279 42.2941 34.5373 44.3988 29.9998 44.3988ZM44.3998 31.1988H41.9998V33.5988H39.5998V31.1988H37.1998V28.7988H39.5998V26.3988H41.9998V28.7988H44.3998V31.1988ZM52.7998 31.1988H50.3998V33.5988H47.9998V31.1988H45.5998V28.7988H47.9998V26.3988H50.3998V28.7988H52.7998V31.1988Z" fill="#8F979E"/>
</svg>
