<svg width="60" height="60" viewBox="0 0 60 60" fill="none" xmlns="http://www.w3.org/2000/svg">
<path d="M21.3425 60C16.51 60 12.5925 56.0825 12.5925 51.25C12.5925 46.4175 16.51 42.5 21.3425 42.5H27.5925C28.9725 42.5 30.0925 43.62 30.0925 45V51.25C30.0925 56.0825 26.175 60 21.3425 60ZM41.25 20H35C33.62 20 32.5 18.88 32.5 17.5V5C32.5 3.62 33.62 2.5 35 2.5H41.25C46.0825 2.5 50 6.4175 50 11.25C50 16.0825 46.0825 20 41.25 20ZM21.25 20H27.5C28.88 20 30 18.88 30 17.5V5C30 3.62 28.88 2.5 27.5 2.5H21.25C16.4175 2.5 12.5 6.4175 12.5 11.25C12.5 16.0825 16.4175 20 21.25 20ZM21.25 40H27.5C28.88 40 30 38.88 30 37.5V25C30 23.62 28.88 22.5 27.5 22.5H21.25C16.4175 22.5 12.5 26.4175 12.5 31.25C12.5 36.0825 16.4175 40 21.25 40ZM40 22.5C38.0109 22.5 36.1032 23.2902 34.6967 24.6967C33.2902 26.1032 32.5 28.0109 32.5 30C32.5 31.9891 33.2902 33.8968 34.6967 35.3033C36.1032 36.7098 38.0109 37.5 40 37.5C41.9891 37.5 43.8968 36.7098 45.3033 35.3033C46.7098 33.8968 47.5 31.9891 47.5 30C47.5 28.0109 46.7098 26.1032 45.3033 24.6967C43.8968 23.2902 41.9891 22.5 40 22.5Z" fill="#8F979E"/>
</svg>
