<svg width="60" height="60" viewBox="0 0 60 60" fill="none" xmlns="http://www.w3.org/2000/svg">
<path d="M30 6C16.746 6 6 16.746 6 30C6 41.246 13.744 50.656 24.184 53.26C24.072 52.936 24 52.56 24 52.094V47.992C23.026 47.992 21.394 47.992 20.984 47.992C19.342 47.992 17.882 47.286 17.174 45.974C16.388 44.516 16.252 42.286 14.304 40.922C13.726 40.468 14.166 39.95 14.832 40.02C16.062 40.368 17.082 41.212 18.042 42.464C18.998 43.718 19.448 44.002 21.234 44.002C22.1 44.002 23.396 43.952 24.616 43.76C25.272 42.094 26.406 40.56 27.792 39.836C19.8 39.014 15.986 35.038 15.986 29.64C15.986 27.316 16.976 25.068 18.658 23.174C18.106 21.294 17.412 17.46 18.87 16C22.466 16 24.64 18.332 25.162 18.962C26.954 18.348 28.922 18 30.99 18C33.062 18 35.038 18.348 36.834 18.966C37.35 18.34 39.526 16 43.13 16C44.594 17.462 43.892 21.312 43.334 23.188C45.006 25.078 45.99 27.32 45.99 29.64C45.99 35.034 42.182 39.008 34.202 39.834C36.398 40.98 38 44.2 38 46.626V52.094C38 52.302 37.954 52.452 37.93 52.63C47.282 49.352 54 40.472 54 30C54 16.746 43.254 6 30 6Z" fill="#8F979E"/>
</svg>
