<svg width="60" height="60" viewBox="0 0 60 60" fill="none" xmlns="http://www.w3.org/2000/svg">
<path d="M56.1515 26.5063L33.4921 3.84687C32.5312 2.88125 31.2655 2.39844 29.9999 2.39844C28.7343 2.39844 27.4687 2.88125 26.5077 3.84687L22.0265 8.32812L27.5718 13.8734C29.414 12.7906 31.814 13.025 33.3937 14.6047C34.9733 16.1844 35.203 18.5844 34.1202 20.4219L39.5718 25.8734C41.414 24.7906 43.814 25.025 45.3937 26.6047C47.2687 28.4797 47.2687 31.5172 45.3937 33.3922C43.5187 35.2672 40.4812 35.2672 38.6062 33.3922C37.0265 31.8125 36.7921 29.4125 37.8749 27.5703L32.4233 22.1188C32.0343 22.3484 31.6265 22.5172 31.1999 22.625V37.3672C33.2671 37.9016 34.7999 39.7625 34.7999 41.9984C34.7999 44.6516 32.653 46.7984 29.9999 46.7984C27.3468 46.7984 25.1999 44.6516 25.1999 41.9984C25.1999 39.7625 26.7327 37.9016 28.7999 37.3672V22.625C27.9983 22.4188 27.2343 22.0203 26.6062 21.3922C25.0265 19.8125 24.7968 17.4125 25.8796 15.575L20.3296 10.025L3.84834 26.5063C1.91709 28.4328 1.91709 31.5641 3.84834 33.4906L26.5077 56.15C27.4687 57.1156 28.7343 57.5984 29.9999 57.5984C31.2655 57.5984 32.5312 57.1156 33.4921 56.15L56.1515 33.4906C58.0827 31.5641 58.0827 28.4328 56.1515 26.5063Z" fill="#8F979E"/>
</svg>
