<svg width="60" height="60" viewBox="0 0 60 60" fill="none" xmlns="http://www.w3.org/2000/svg">
<path d="M23.7175 39.375C23.7175 40.41 22.8787 41.25 21.8425 41.25C20.8062 41.25 19.9675 40.41 19.9675 39.375V21.875C19.9675 21.0587 20.4962 20.3362 21.2737 20.0875C22.055 19.84 22.9012 20.125 23.3725 20.7912L44.3437 50.4212C50.7712 45.8862 55 38.4187 55 30C55 16.25 43.75 5 30 5C16.25 5 5 16.25 5 30C5 43.75 16.25 55 30 55C33.99 55 37.7575 54.0287 41.1125 52.3475L23.7175 27.77V39.375ZM36.2175 20.625C36.2175 19.59 37.0562 18.75 38.0925 18.75C39.1287 18.75 39.9675 19.59 39.9675 20.625V37.925L36.2175 32.6412V20.625Z" fill="#8F979E"/>
</svg>
