<svg width="60" height="60" viewBox="0 0 60 60" fill="none" xmlns="http://www.w3.org/2000/svg">
<path d="M29.989 5.625C29.3046 5.625 28.6204 5.79287 28.0298 6.13037L9.44824 16.8567C8.24824 17.5504 7.5 18.864 7.5 20.2515V39.7119C7.5 41.1182 8.24824 42.4129 9.44824 43.1067L14.3262 45.9192C16.6887 47.0817 17.5311 47.0801 18.5999 47.0801C22.1061 47.0801 24.1113 44.9616 24.1113 41.2866V21.2073C24.1113 20.9073 23.8693 20.6616 23.5693 20.6616H21.2256C20.9068 20.6616 20.6799 20.9073 20.6799 21.2073V41.2683C20.6799 42.9183 18.9757 44.5304 16.2195 43.1616L11.1182 40.2173C10.9307 40.1235 10.8179 39.9182 10.8179 39.7119V20.2698C10.8179 20.0448 10.9307 19.8549 11.1182 19.7424L29.6997 9.01978C29.8685 8.90728 30.0945 8.90728 30.282 9.01978L48.8635 19.7424C49.051 19.8549 49.1638 20.0452 49.1638 20.2515V39.7119C49.1638 39.9182 49.0506 40.1235 48.8818 40.2173L30.282 50.9619C30.1132 51.0557 29.8685 51.0557 29.6997 50.9619L24.917 48.1311C24.7857 48.0374 24.6015 48.0195 24.4702 48.0945C23.139 48.8445 22.8952 48.9376 21.6577 49.3689C21.3577 49.4626 20.8887 49.6496 21.8262 50.1746L28.0298 53.8513C28.6298 54.1888 29.3067 54.375 29.9817 54.375C30.6754 54.375 31.3482 54.1888 31.9482 53.8513L50.5518 43.1067C51.7518 42.4129 52.5 41.1182 52.5 39.7119V20.2698C52.5 18.8635 51.7518 17.5688 50.5518 16.875L31.9482 6.13037C31.3576 5.79287 30.6734 5.625 29.989 5.625ZM34.9878 20.636C29.6815 20.636 26.5137 22.8845 26.5137 26.6345C26.5137 30.7033 29.6607 31.8265 34.7607 32.3328C40.8545 32.9328 41.3232 33.8354 41.3232 35.0354C41.3232 37.0979 39.6573 37.9797 35.7385 37.9797C30.8073 37.9797 29.719 36.7405 29.3628 34.303C29.3253 34.0405 29.1016 33.8525 28.8391 33.8525H26.4185C26.1185 33.8525 25.8948 34.0986 25.8948 34.3799C25.8948 37.5111 27.601 41.239 35.7385 41.239C41.626 41.239 45 38.9169 45 34.8669C45 30.8544 42.2808 29.7836 36.5808 29.0149C30.7871 28.2649 30.2051 27.871 30.2051 26.521C30.2051 25.396 30.7128 23.9172 34.9878 23.9172C38.794 23.9172 40.2183 24.7396 40.7996 27.3083C40.8558 27.5521 41.0607 27.7405 41.3232 27.7405H43.7439C43.8939 27.7405 44.0232 27.6662 44.1357 27.5537C44.2295 27.46 44.2863 27.3086 44.2676 27.1399C43.8926 22.7149 40.9503 20.636 34.9878 20.636Z" fill="#8F979E"/>
</svg>
