<svg width="60" height="60" viewBox="0 0 60 60" fill="none" xmlns="http://www.w3.org/2000/svg">
<path d="M42.2391 2.52344C40.4391 2.52344 38.8782 2.87969 37.4391 3.24062C39.961 4.31875 41.5219 5.64063 42.361 6.24063C44.2828 7.91875 45.361 9.60156 47.2828 12.3625C47.6391 12.9625 48.2391 13.8016 48.6 15.1188C48.961 16.3188 48.961 17.2797 48.961 18.2406C48.961 19.5625 48.8391 20.6406 48.7172 21.7188C48.6 22.5625 48.6 22.9234 48.4828 23.1625C48.4828 23.2844 48.4828 23.4016 48.361 23.6406C48.361 24.2406 48.361 24.4844 48.4828 24.9625C48.4828 25.4406 48.6 25.9234 48.6 26.7625C48.7219 28.3234 48.7219 29.4016 48.4828 30.7188V31.2016C48.2391 32.2797 48 33.3625 47.4 34.3188C47.5219 34.5625 47.6391 34.6797 47.761 34.9188C48.361 34.0797 48.8391 33.2406 49.3172 32.2844C50.761 29.6406 51.6 27.3625 52.2 25.6844C53.2781 22.5625 53.8782 20.2797 54.2391 18.6016C55.0781 15.0016 55.2 13.3234 54.8391 11.4016C54.8391 10.8016 54.6 9.71875 54 8.64063C52.6782 6.24063 50.6391 5.1625 49.2 4.44062C48.2391 3.9625 45.7172 2.64062 42.2391 2.52344ZM16.2422 3.05312C14.8594 3.025 13.1719 3.17969 11.2782 4.07969C10.6782 4.32344 8.87815 5.1625 7.43909 7.07969C6.47816 8.27969 5.76097 10.0797 5.40003 12.1187C5.03909 13.9187 4.91722 16.0844 5.63909 20.1625C6.11722 23.0406 6.60003 24.9625 7.56097 28.9188C7.68284 29.4016 8.40003 31.5625 9.96097 36.3625L10.0782 36.6016C10.3219 37.4406 11.0391 39.2406 12.6 41.0406C13.6782 42.2406 14.6391 42.9625 15.4828 42.9625H15.7172C17.2782 42.9625 18.361 41.7625 19.3172 40.8016C19.3172 40.6797 21.6 37.9234 22.4391 36.9625C22.3172 36.8406 22.0828 36.8406 21.961 36.7188C20.5219 35.8797 19.4391 34.5625 18.6 33.1188C17.161 30.4797 17.2782 27.8406 17.5172 26.5188L17.6391 24.4844C17.161 21.2406 17.2828 18.1234 17.8828 15.0016C18.361 12.3625 18.961 9.72344 21.1172 6.9625C21.8391 6.00156 22.6782 5.1625 23.5172 4.5625C21.6 3.72344 19.561 3.24062 17.5172 3.12344C17.1282 3.09062 16.7016 3.0625 16.2422 3.05312ZM31.3172 4.07969C30.7172 4.07969 30.1172 4.07969 29.5172 4.20156C27.1172 4.67969 24.8391 6.00156 23.0391 8.27969C21.2391 10.5625 20.761 12.7188 20.2828 15.2406C20.0391 16.2016 20.0391 17.0406 19.9172 18.0016C20.6391 17.4016 21.6 16.6797 23.0391 16.3188C23.8782 16.0797 26.0391 15.3625 27.8391 16.4406C28.4391 16.8016 29.2782 17.5234 30.1172 19.5625C31.9172 24.6016 30.1219 29.7625 29.8828 30.2406C29.761 30.7188 29.5219 31.0797 29.4 31.3188C29.161 31.9188 28.9219 32.4016 28.6828 33.3625C28.561 34.2016 28.4391 34.9234 28.4391 35.7625C28.8 35.7625 29.161 35.8797 29.5172 36.1188C30.1172 36.7188 30.2391 37.5625 30.361 37.9188C30.6 39.8406 30.6 42.2406 30.6 44.6406C30.6 46.5625 30.6 48.3625 30.7172 49.5625C30.961 52.3234 31.8 54.2406 33 55.2016C33.8391 55.9234 34.9172 55.9188 35.5172 56.0406H35.761C37.561 56.0406 40.4391 54.8406 41.5172 53.1625C42.1172 52.2016 42.361 51.3625 42.6 50.1625C42.7219 49.4406 42.7172 49.0844 42.8391 48.3625C42.8391 48.0016 42.961 47.4016 42.961 46.6844C42.961 46.0844 43.0782 45.3625 43.2 44.5188C43.3219 42.4797 43.6782 40.0844 43.8 38.7625C43.9219 37.2016 44.6391 35.8797 45.2391 35.0406C44.4 34.9188 43.561 34.2016 43.0828 33.0016C42.361 31.6797 42.2391 31.3188 42.1172 30.7188C42 30.2406 41.761 29.6406 40.9172 27.8406C39.1172 23.7625 38.8828 22.5625 38.8828 21.6016C38.761 20.2797 38.6391 18.4844 40.0828 17.2844C42.2391 15.3625 45 15.4844 46.4391 15.9625V15.7188C46.2 14.7625 45.7219 14.0406 45.361 13.5625C43.561 10.8016 42.6 9.3625 40.9172 7.92344C40.2 7.32344 38.4 5.87969 35.761 4.92344C34.561 4.5625 33.1172 4.07969 31.3172 4.07969ZM44.5828 18.1516C43.711 18.0906 42.6 18.2406 41.6391 19.0844C41.161 19.5625 41.161 20.5234 41.2828 21.3625C41.2828 21.9625 41.4 22.8016 43.2 26.8844C44.0391 28.8016 44.2782 29.4016 44.4 29.8844C44.5219 30.3625 44.6391 30.6016 45.361 31.9188C45.4828 32.1625 45.6 32.4016 45.8391 32.6406C46.0782 32.2797 46.2 31.6797 46.3172 30.7188L46.4391 30.3625C46.6782 29.2844 46.561 28.4406 46.561 27.0016C46.561 26.2797 46.4391 25.8016 46.4391 25.4406C46.3172 24.8406 46.3172 24.3625 46.3172 23.6406C46.0782 23.2797 46.0782 23.1625 46.2 22.9188C46.2 22.6797 46.3172 22.3234 46.4391 21.6016C46.561 20.6406 46.6828 19.8016 46.6828 18.8406C46.4391 18.7188 46.3219 18.6016 46.0828 18.4844C46.0828 18.4844 45.45 18.2125 44.5828 18.1516ZM25.8188 18.625C25.0547 18.5359 24.1782 18.7844 23.6391 18.9625C22.3172 19.3234 21.4828 20.1625 20.8828 20.6406C20.5219 21.0016 20.161 21.3625 19.8 21.8406C19.8 22.6797 19.9172 23.5234 20.0391 24.3625V24.4844L19.8 26.8844C19.561 27.9625 19.4391 30.0016 20.6391 32.0406C21.2391 33.2406 22.0828 34.2016 23.161 34.8016C23.8828 35.2797 24.8391 35.6406 25.9172 35.8844C25.9172 35.0406 26.0391 34.0797 26.161 33.2406C26.4 32.0406 26.6391 31.4406 27 30.7188C27.1219 30.3625 27.2391 30.1234 27.4828 29.7625C27.6 29.4016 29.2782 24.8406 27.7172 20.6406C27.361 19.6797 27 19.0797 26.5172 18.8406C26.311 18.7188 26.0672 18.6531 25.8188 18.625ZM43.425 19.3094C43.7391 19.2906 44.0391 19.3188 44.161 19.4406C44.5219 19.6797 44.0391 20.2797 43.9172 20.4016C43.8 20.5234 43.561 20.7625 43.2 20.8844C42.7219 21.0016 42.361 20.6406 42.2391 20.6406C42.1172 20.5187 41.761 20.1625 41.8828 19.8016C42 19.5625 42.1219 19.5625 42.6 19.4406C42.7782 19.3797 43.111 19.3234 43.425 19.3094ZM25.3875 20.3031C25.7907 20.275 26.1282 20.4297 26.4 20.5188C26.761 20.6406 27.1172 20.7625 27.1172 21.0016C27.2391 21.3625 26.8828 21.6016 26.761 21.7188C26.4 22.0797 25.8 22.0844 25.8 22.0844C25.2 22.0844 24.8391 21.7234 24.6 21.3625C24.4782 21.2406 24.361 21.0016 24.4828 20.7625C24.6 20.5234 24.8391 20.4016 24.961 20.4016C25.111 20.3406 25.2516 20.3125 25.3875 20.3031ZM47.4 36.0016C46.8 36.8406 45.961 37.9234 45.8391 39.3625C45.8391 39.6016 45.8391 39.7234 45.7172 39.9625C46.6782 40.2016 47.5219 40.2016 48.361 40.0844C50.2828 39.8406 51.6 38.8797 51.8391 38.6406C52.6782 38.0406 53.761 36.8406 53.5172 36.3625C53.4 36.1234 53.0391 36.2406 51.1172 36.3625C50.6391 36.3625 49.2 36.7234 48.2391 36.4844H48C47.761 36.3625 47.5219 36.2406 47.4 36.0016ZM26.5172 38.4016C26.2782 38.7625 25.9219 39.0016 25.6828 39.2406C24.7219 39.8406 23.5172 40.3234 22.3172 40.5625C21.2391 40.9234 20.6391 40.9234 20.6391 41.2844C20.5172 41.7625 21.7172 42.3625 22.3172 42.6016C24.361 43.4406 26.4 42.9625 26.761 42.8406C27 42.7188 27.6 42.4797 28.2 42.1188C28.2 40.8016 28.0828 39.6016 27.961 38.6406V38.5188H27.8391C27.4782 38.5188 27 38.5234 26.5172 38.4016Z" fill="#8F979E"/>
</svg>
