<svg width="60" height="60" viewBox="0 0 60 60" fill="none" xmlns="http://www.w3.org/2000/svg">
<path d="M29.3999 2.39844C18.9608 2.39844 16.7999 7.78906 16.7999 10.9109V16.7984H28.7999V17.9984H10.9124C6.95147 17.9984 2.3999 21.1203 2.3999 29.9984C2.3999 38.8766 6.95147 41.9984 10.9124 41.9984H17.9999V34.7984C17.9999 32.1594 20.1608 29.9984 22.7999 29.9984H37.1999C39.239 29.9984 40.7999 28.4375 40.7999 26.3984V10.9109C40.7999 6.71094 36.839 2.39844 29.3999 2.39844ZM23.9999 8.39844C25.3218 8.39844 26.3999 9.47656 26.3999 10.7984C26.3999 12.1203 25.3218 13.1984 23.9999 13.1984C22.678 13.1984 21.5999 12.1203 21.5999 10.7984C21.5999 9.47656 22.678 8.39844 23.9999 8.39844ZM41.9999 17.9984V26.3984C41.9999 29.0375 39.839 31.1984 37.1999 31.1984H22.7999C20.7608 31.1984 19.1999 32.7594 19.1999 34.7984V49.0859C19.1999 53.2859 23.1608 57.5984 30.5999 57.5984C41.039 57.5984 43.1999 52.2078 43.1999 49.0859V43.1984H31.1999V41.9984H49.0874C53.0483 41.9984 57.5999 38.8766 57.5999 29.9984C57.5999 21.1203 53.0483 17.9984 49.0874 17.9984H41.9999ZM35.9999 46.7984C37.3218 46.7984 38.3999 47.8766 38.3999 49.1984C38.3999 50.5203 37.3218 51.5984 35.9999 51.5984C34.678 51.5984 33.5999 50.5203 33.5999 49.1984C33.5999 47.8766 34.678 46.7984 35.9999 46.7984Z" fill="#8F979E"/>
</svg>
