<svg width="60" height="60" viewBox="0 0 60 60" fill="none" xmlns="http://www.w3.org/2000/svg">
<path d="M21.3594 8.36328C20.1374 8.36328 19.004 8.63684 18 9.21484C14.8623 11.0264 13.6679 15.4411 14.3008 20.9375C9.2254 23.1377 6 26.3773 6 30C6 33.6227 9.2254 36.8623 14.3008 39.0625C13.6683 44.5587 14.8623 48.9736 18 50.7852C19.002 51.3632 20.1354 51.6367 21.3594 51.6367C23.9646 51.6367 26.9757 50.3292 30 48.0859C33.0246 50.3292 36.0393 51.6367 38.6445 51.6367C39.8665 51.6367 40.9999 51.3632 42.0039 50.7852C45.1416 48.9736 46.336 44.5589 45.7031 39.0625C50.7766 36.8624 54 33.6219 54 30C54 26.3773 50.7746 23.1377 45.6992 20.9375C46.3317 15.4413 45.1377 11.0264 42 9.21484C40.998 8.63484 39.8646 8.36328 38.6406 8.36328C36.0354 8.36328 33.0243 9.67082 30 11.9141C26.9755 9.67082 23.9637 8.36328 21.3594 8.36328ZM21.3594 11.8633C22.9226 11.8633 24.9899 12.6945 27.2344 14.2344C25.9147 15.4797 24.6223 16.8959 23.3789 18.4727C21.3622 18.7618 19.4607 19.1834 17.6992 19.7109C17.6898 19.5888 17.6674 19.4606 17.6602 19.3398C17.4462 15.7798 18.228 13.1261 19.75 12.2461C20.2 11.9861 20.7254 11.8633 21.3594 11.8633ZM38.6406 11.8633C39.2726 11.8633 39.8 11.9861 40.25 12.2461C41.772 13.1241 42.5538 15.7798 42.3398 19.3398C42.3326 19.4606 42.3103 19.5888 42.3008 19.7109C40.5382 19.183 38.6353 18.7619 36.6172 18.4727C35.3738 16.8961 34.0852 15.4796 32.7656 14.2344C35.0099 12.6948 37.0782 11.8633 38.6406 11.8633ZM30 16.457C30.5422 16.9505 31.0805 17.4721 31.625 18.043C31.0854 18.0248 30.5487 18 30 18C29.4526 18 28.9172 18.0249 28.3789 18.043C28.9229 17.4727 29.4583 16.95 30 16.457ZM30 21.5C31.6574 21.5 33.2283 21.5926 34.7188 21.7539C35.6277 22.9894 36.5235 24.2956 37.3633 25.75C38.1681 27.1441 38.8799 28.571 39.5078 30C38.8798 31.4299 38.1686 32.859 37.3633 34.2539C36.5262 35.7041 35.6326 37.0019 34.7266 38.2344C33.1834 38.4032 31.6004 38.5 30 38.5C28.3426 38.5 26.7717 38.4074 25.2812 38.2461C24.3723 37.0106 23.4765 35.7083 22.6367 34.2539C21.8314 32.859 21.1204 31.4299 20.4922 30C21.1199 28.571 21.8319 27.1441 22.6367 25.75C23.4742 24.2998 24.3672 22.9981 25.2734 21.7656C26.8166 21.5968 28.3996 21.5 30 21.5ZM39.4922 22.582C40.2857 22.7736 41.0485 22.9804 41.7656 23.2109C41.6032 23.945 41.4045 24.6932 41.1797 25.4492C40.9223 24.9663 40.6727 24.4818 40.3945 24C40.1083 23.5044 39.7905 23.0591 39.4922 22.582ZM20.5039 22.5859C20.2066 23.0616 19.8908 23.506 19.6055 24C19.3273 24.4819 19.0776 24.9662 18.8203 25.4492C18.595 24.6917 18.3931 23.9426 18.2305 23.207C18.9607 22.9763 19.7217 22.772 20.5039 22.5859ZM14.9375 24.4922C15.3589 26.2714 15.9435 28.1158 16.6953 29.9961C15.9451 31.8719 15.3629 33.7129 14.9414 35.4883C11.4585 33.8064 9.5 31.7127 9.5 30C9.5 28.242 11.4037 26.2385 14.5938 24.6445C14.7026 24.5901 14.8262 24.5454 14.9375 24.4922ZM45.0586 24.5117C48.5415 26.1936 50.5 28.2873 50.5 30C50.5 31.758 48.5962 33.7615 45.4062 35.3555C45.2974 35.4099 45.1738 35.4546 45.0625 35.5078C44.6409 33.7275 44.0611 31.8814 43.3086 30C44.058 28.1258 44.6374 26.2856 45.0586 24.5117ZM30 26C27.79 26 26 27.79 26 30C26 32.21 27.79 34 30 34C32.21 34 34 32.21 34 30C34 27.79 32.21 26 30 26ZM18.8203 34.5508C19.0778 35.0339 19.3311 35.518 19.6094 36C19.8953 36.4952 20.2098 36.9412 20.5078 37.418C19.7143 37.2264 18.9515 37.0196 18.2344 36.7891C18.397 36.0545 18.5953 35.3073 18.8203 34.5508ZM41.1797 34.5547C41.4047 35.3115 41.607 36.0581 41.7695 36.793C41.0393 37.0237 40.2783 37.228 39.4961 37.4141C39.7934 36.9384 40.1092 36.494 40.3945 36C40.6721 35.5191 40.9229 35.0367 41.1797 34.5547ZM17.6992 40.2891C19.4618 40.8169 21.3647 41.2381 23.3828 41.5273C24.6266 43.1047 25.9142 44.5239 27.2344 45.7695C24.9901 47.309 22.9225 48.1406 21.3594 48.1406C20.7274 48.1406 20.2 48.0139 19.75 47.7539C18.228 46.8759 17.4462 44.2241 17.6602 40.6641C17.6675 40.542 17.6896 40.4125 17.6992 40.2891ZM42.3008 40.2891C42.3104 40.4125 42.3326 40.542 42.3398 40.6641C42.5538 44.2241 41.772 46.8739 40.25 47.7539C39.8 48.0139 39.2746 48.1406 38.6406 48.1406C37.0775 48.1406 35.0099 47.3092 32.7656 45.7695C34.0859 44.5237 35.3771 43.1049 36.6211 41.5273C38.6378 41.2382 40.5393 40.8166 42.3008 40.2891ZM28.375 41.957C28.9146 41.9752 29.4513 42 30 42C30.5487 42 31.0854 41.9752 31.625 41.957C31.0805 42.5279 30.5422 43.0495 30 43.543C29.4578 43.0495 28.9195 42.5279 28.375 41.957Z" fill="#8F979E"/>
</svg>
