<svg width="60" height="60" viewBox="0 0 60 60" fill="none" xmlns="http://www.w3.org/2000/svg">
<g clip-path="url(#clip0_3240_3691)">
<path d="M30 12.0039C22 12.0039 17 16.0027 15 24.0002C18 20.0014 21.5 18.5027 25.5 19.5014C27.7825 20.0714 29.4137 21.7277 31.22 23.5602C34.16 26.5439 37.5638 29.9989 45 29.9989C53 29.9989 58 26.0002 60 18.0014C57 22.0002 53.5 23.5002 49.5 22.5014C47.2187 21.9314 45.5875 20.2752 43.7812 18.4427C40.84 15.4577 37.435 12.0039 30 12.0039ZM15 29.9989C7 29.9989 2 33.9977 0 41.9964C3 37.9977 6.5 36.4977 10.5 37.4977C12.7812 38.0689 14.4125 39.7239 16.2188 41.5552C19.16 44.5402 22.565 47.9952 30 47.9952C38 47.9952 43 43.9964 45 35.9977C42 39.9964 38.5 41.4964 34.5 40.4964C32.2175 39.9264 30.5863 38.2702 28.78 36.4389C25.84 33.4539 22.4363 29.9989 15 29.9989Z" fill="#8F979E"/>
</g>
<defs>
<clipPath id="clip0_3240_3691">
<rect width="60" height="60" fill="white"/>
</clipPath>
</defs>
</svg>
